<svg width="741" height="830" viewBox="0 0 741 830" fill="none" xmlns="http://www.w3.org/2000/svg">
<path d="M103.529 541.197C103.79 541.203 104.001 541.174 104.091 541.161C104.295 541.131 104.482 541.085 104.598 541.055C104.853 540.989 105.16 540.894 105.479 540.791C106.134 540.579 107.032 540.264 108.096 539.876C109.698 539.291 111.729 538.519 113.978 537.631L116.291 536.706L116.293 536.705C142.045 526.272 170.231 518.587 207.559 511.811H207.56L230.76 507.679L232.383 507.39L233.009 505.864L238.209 493.197H238.208C243.694 480.125 256.525 449.712 280.803 392.682L291.927 366.568V366.567C304.59 336.842 321.127 298.165 328.595 280.563L328.597 280.561C363.446 198.178 366.719 191.846 368.604 188.547C368.987 187.878 369.533 187.679 370.137 187.826C370.857 188.003 372.398 188.902 373.725 192.131C376.8 199.752 382.021 211.936 385.065 219.216C388.122 226.524 395.76 244.35 401.734 258.555C404.736 265.693 408.739 275.131 412.738 284.562C416.739 293.997 420.736 303.426 423.734 310.555L423.744 310.576C429.873 324.833 440.669 350.291 447.731 367.214L447.737 367.227L447.742 367.24C451.339 375.632 455.47 385.392 459.254 394.343C463.035 403.288 466.472 411.431 468.676 416.573C470.88 421.716 472.989 426.537 474.635 430.164C475.456 431.974 476.171 433.508 476.729 434.642C477.007 435.205 477.26 435.698 477.476 436.088C477.583 436.281 477.696 436.477 477.811 436.656C477.887 436.776 478.07 437.055 478.329 437.326L478.328 437.327C478.337 437.336 478.346 437.345 478.354 437.354C478.363 437.363 478.371 437.372 478.379 437.38L478.38 437.379C479.281 438.29 480.4 438.514 481.207 438.52C482.004 438.527 482.758 438.334 483.371 438.121C484.613 437.691 486.009 436.921 487.435 436.005C490.33 434.143 493.952 431.276 497.786 427.89C505.455 421.116 514.326 411.949 520.478 403.754L521.242 402.749C529.104 392.301 535.762 379.9 540.251 367.622H540.25C543.869 358.003 545.5 345.806 545.5 336.059C545.5 326.273 544.293 320.162 542.885 315.234C542.195 312.819 541.064 309.42 540.122 306.67C539.648 305.285 539.216 304.047 538.902 303.156C538.746 302.711 538.618 302.351 538.529 302.103C538.485 301.979 538.451 301.882 538.428 301.816C538.416 301.784 538.407 301.758 538.401 301.741C538.398 301.733 538.395 301.726 538.394 301.722C538.393 301.72 538.393 301.718 538.393 301.717L538.392 301.715L538.362 301.635L538.33 301.556C535.391 294.608 526.318 273.531 518.184 254.86C510.066 236.229 496.309 204.31 487.516 184.19C478.72 164.067 461.125 123.145 448.322 93.4052L448.319 93.3984C422.304 33.4047 421.703 31.9314 415.923 24.6006L415.922 24.6015C403.73 9.01664 379.67 0.257784 359.583 3.7695V3.77048C351.332 5.19458 342.699 9.10224 335.244 14.2568C327.795 19.4069 321.29 25.9617 317.474 32.875L317.455 32.9091L317.437 32.9443C315.501 36.677 307.317 55.2033 299.334 74.2304C291.34 93.2818 279.878 119.936 274.012 133.536C268.159 147.105 260.123 165.99 256.012 175.538L256.007 175.548L256.003 175.558C252.008 185.013 236.279 221.668 221.079 256.869C205.898 292.026 190.827 326.834 187.738 334.22C181.742 348.343 131.348 465.265 111.882 510.062L111.878 510.071L111.875 510.079C108.74 517.416 105.901 524.129 103.877 529.029C102.867 531.476 102.052 533.49 101.504 534.908C101.233 535.61 101.012 536.203 100.864 536.643C100.795 536.849 100.717 537.095 100.661 537.327C100.638 537.422 100.584 537.652 100.564 537.93C100.556 538.051 100.538 538.37 100.616 538.764C100.664 539.001 100.886 539.983 101.848 540.648C101.871 540.665 101.895 540.68 101.918 540.695C101.955 540.72 101.994 540.744 102.033 540.768C102.084 540.798 102.133 540.825 102.182 540.851C102.196 540.858 102.21 540.868 102.225 540.875L102.226 540.874C102.499 541.011 102.731 541.078 102.863 541.11C103.157 541.182 103.401 541.194 103.529 541.197Z" fill="url(#paint0_linear_4_4)" stroke="url(#paint1_linear_4_4)" stroke-width="6"/>
<path d="M9.40527 794.843C28.3883 833.652 83.6555 837.572 106.983 801.475C109.971 797.064 115.399 785.753 119.142 776.532L123.739 765.377C133.88 740.866 140.075 726.673 145.784 716.474C152.216 704.983 158.022 698.579 168.488 688.046L170 686.547C185.103 671.706 199.685 661.352 219.811 651.1L221.842 650.075L221.848 650.072C246.518 637.671 284.107 625.229 311.559 620.346H311.558L325.236 617.925L329.362 621.415C342.305 632.651 362.003 638.105 378.497 635.144H378.496C398.86 631.695 415.341 619.282 424.259 601.144L424.678 600.275L424.686 600.26L424.692 600.244C426.685 595.907 428.855 591.223 429.973 588.906L430.384 588.066L430.399 588.035C430.667 587.484 431.627 586.292 433.682 584.449C435.631 582.701 438.277 580.612 441.514 578.26C447.979 573.561 456.627 567.934 466.352 562.059C485.2 550.673 507.914 538.464 526.32 530.382L528.088 529.613L528.101 529.607C544.737 522.345 570.766 514.031 584.357 511.546C591.083 510.384 607.699 509.056 623.534 508.523H623.533C636.447 508.126 643.589 507.89 647.806 507.387C649.931 507.133 651.571 506.787 652.931 506.191C654.35 505.57 655.273 504.758 656.068 503.932C657.213 502.857 658.099 501.451 658.698 500.133C659.3 498.81 659.767 497.238 659.767 495.792C659.767 495.199 659.596 494.631 659.532 494.417C659.432 494.08 659.299 493.693 659.146 493.278C658.837 492.443 658.396 491.352 657.849 490.056C656.751 487.455 655.175 483.912 653.245 479.693C649.383 471.25 644.072 460.028 638.265 448.08L638.259 448.068C626.486 424.122 615.898 402.14 614.619 398.944L614.604 398.907C612.462 393.755 610.14 389.748 607.005 387.734C605.318 386.651 603.458 386.18 601.479 386.344C599.577 386.501 597.727 387.23 595.939 388.257L595.853 388.307L595.77 388.362C595.135 388.785 594.543 389.392 594.064 389.934C593.546 390.523 592.996 391.227 592.446 391.992C591.348 393.523 590.171 395.413 589.17 397.344L589.158 397.367C571.745 431.666 547.531 460.161 521.117 477.553L521.108 477.559C492.928 496.258 449.719 513.305 416.255 519.102L416.239 519.104L405.999 520.934L397.278 516.693L397.275 516.692C365.285 501.186 329.24 513.228 313.293 544.965L312.578 546.366C311.938 547.611 311.489 548.419 310.968 549.085C310.393 549.82 309.691 550.419 308.27 551.048C306.742 551.724 304.486 552.389 300.84 553.225C297.222 554.055 292.431 555.013 285.912 556.316L285.903 556.318L285.896 556.319C262.66 561.099 249.408 563.221 218.133 567.081H218.129C172.992 572.706 153.021 578.107 124.871 592.452H124.87C97.8486 606.233 71.4722 627.715 55.0293 649.729V649.73C44.7906 663.382 43.7235 665.452 22.292 714.172L5.0918 752.839L5.00488 753.036L4.94629 753.244L7.83301 754.059C4.94585 753.244 4.94545 753.245 4.94531 753.245V753.246L4.94434 753.248C4.94379 753.25 4.94315 753.253 4.94238 753.256C4.94088 753.261 4.93883 753.268 4.93652 753.276C4.93177 753.293 4.92597 753.317 4.91797 753.347C4.90193 753.406 4.8793 753.489 4.85156 753.596C4.79611 753.808 4.71839 754.113 4.62695 754.5C4.44416 755.273 4.20406 756.375 3.96387 757.718C3.48539 760.393 3 764.078 3 768.059C3.00006 776.036 5.21367 786.041 9.3916 794.814L9.39844 794.829L9.40527 794.843Z" fill="url(#paint2_linear_4_4)" stroke="url(#paint3_linear_4_4)" stroke-width="6"/>
<path d="M682.539 826.392C693.157 826.252 698.738 824.181 703.398 822.475C726.967 813.85 739.87 790.026 737.486 765.765C736.765 757.468 734.393 750.867 724.981 729.524L724.982 729.523C710.581 696.59 685.383 639.395 675.515 616.991C669.49 603.2 666.375 597.831 660.639 592.09L660.64 592.089C652.636 583.945 640.823 577.157 628.622 573.83L628.621 573.831C622.628 572.191 611.132 571.225 599.703 570.959C588.247 570.692 576.295 571.115 569.296 572.44C561.177 573.917 554.323 575.473 549.541 576.9C547.177 577.606 545.183 578.321 543.772 579.031C543.097 579.371 542.334 579.816 541.737 580.405C541.224 580.91 540.018 582.387 540.767 584.335L540.771 584.345L540.775 584.355C542.266 588.152 566.295 644.352 581.345 679.246L581.348 679.253C590.543 700.442 604.005 732.031 611.34 749.234C623.272 777.431 631.242 793.217 638.197 803.033C645.304 813.065 651.361 816.861 659.021 821.201C666.674 825.538 674.78 826.494 682.539 826.392Z" fill="url(#paint4_linear_4_4)" stroke="url(#paint5_linear_4_4)" stroke-width="6"/>
<defs>
<linearGradient id="paint0_linear_4_4" x1="352.31" y1="-22.3243" x2="334.717" y2="547.626" gradientUnits="userSpaceOnUse">
<stop stop-color="#DD3A41"/>
<stop offset="1" stop-color="#3A1113"/>
</linearGradient>
<linearGradient id="paint1_linear_4_4" x1="323.028" y1="5.99808" x2="323.028" y2="538.198" gradientUnits="userSpaceOnUse">
<stop stop-color="#E9585D"/>
<stop offset="1" stop-color="#240405"/>
</linearGradient>
<linearGradient id="paint2_linear_4_4" x1="374.796" y1="366.211" x2="366.897" y2="831.385" gradientUnits="userSpaceOnUse">
<stop stop-color="#DD3A41"/>
<stop offset="1" stop-color="#3A1113"/>
</linearGradient>
<linearGradient id="paint3_linear_4_4" x1="331.383" y1="389.312" x2="331.383" y2="823.387" gradientUnits="userSpaceOnUse">
<stop stop-color="#E9585D"/>
<stop offset="1" stop-color="#240405"/>
</linearGradient>
<linearGradient id="paint4_linear_4_4" x1="651.909" y1="560.604" x2="643.034" y2="827.778" gradientUnits="userSpaceOnUse">
<stop stop-color="#DD3A41"/>
<stop offset="1" stop-color="#3A1113"/>
</linearGradient>
<linearGradient id="paint5_linear_4_4" x1="639.152" y1="573.883" x2="639.152" y2="823.398" gradientUnits="userSpaceOnUse">
<stop stop-color="#E9585D"/>
<stop offset="1" stop-color="#240405"/>
</linearGradient>
</defs>
</svg>
